# xmcd
#
# Track frame offsets:
#	150
#	18412
#	30772
#	45788
#	71599
#	86003
#	101834
#	121463
#	143242
#	165524
#	180064
#	195212
#
# Disc length: 3796 seconds
#
# Revision: 1
# Processed by: cddbd v1.4PL0 Copyright (c) Steve Scherf et al.
# Submitted via: EasyCDDAExtractor 5.1.0
#
DISCID=850ed20c
DTITLE=Magee Payne - Habits Of The Heart
DYEAR=1900
DGENRE=Country
TTITLE0=Leaving Home
TTITLE1=God Don't Cry
TTITLE2=In His Hands
TTITLE3=I Love You
TTITLE4=Angel
TTITLE5=Heading South
TTITLE6=Cigs 'n' Rain
TTITLE7=Mexican Sun
TTITLE8=Devil's Smile
TTITLE9=Blown (FYB)
TTITLE10=16 Days
TTITLE11=Settle Down
EXTD=
EXTT0=
EXTT1=
EXTT2=
EXTT3=
EXTT4=
EXTT5=
EXTT6=
EXTT7=
EXTT8=
EXTT9=
EXTT10=
EXTT11=
PLAYORDER=
